<?xml version="1.0" encoding="UTF-8"?>
<svg id="Layer_1" data-name="Layer 1" xmlns="http://www.w3.org/2000/svg" viewBox="0 0 180 180">
  <defs>
    <style>
      .cls-1 {
        fill: #12ff80;
      }
    </style>
  </defs>
  <path class="cls-1" d="M114.47,60.41c-.78-.78-2.05-.78-2.83,0l-27.26,27.26c-.85,.85-2.01,.62-2.77-.14l-9.57-9.57c-.78-.78-2.05-.78-2.83,0l-6.2,6.2c-.78,.78-.78,2.05,0,2.83l13.19,13.17c.81,.81,1.62,1.16,2.78,1.16h7.97c1.16,0,2.2-.35,3.01-1.16l30.7-30.72c.78-.78,.78-2.05,0-2.83l-6.2-6.2Z"/>
  <path class="cls-1" d="M132.98,28.76v-4.03c0-2.21-1.79-4-4-4H51.05c-2.21,0-4,1.79-4,4v4.01c0,2.21-1.79,4-4,4h-4.03c-2.21,0-4,1.79-4,4l.02,75.13c0,.53,.21,1.04,.59,1.41l45.4,45.42c.38,.38,.88,.59,1.42,.59h15.15c.53-.01,1.04-.22,1.41-.6l45.42-45.42c.38-.38,.59-.88,.59-1.41l.02-75.08c0-2.2-1.78-3.99-3.98-4l-4.07-.02c-2.2,0-3.98-1.8-3.98-4Zm-.83,77.75c0,.53-.21,1.04-.59,1.41l-40.16,40.16c-.78,.78-2.04,.78-2.82,0l-40.13-40.13c-.38-.38-.59-.88-.59-1.41V37.58c0-2.21,1.79-4,4-4h76.28c2.21,0,4,1.79,4,4V106.5Z"/>
</svg>